<svg width="40" height="12" viewBox="0 0 40 12" fill="none" xmlns="http://www.w3.org/2000/svg">
<path d="M6.4432 11.9728C4.85407 11.5213 5.5932 9.15097 5.81494 8.05985C6.25842 6.10335 6.84972 4.18449 7.14538 2.19037C7.18233 2.03987 6.99755 1.927 6.81277 2.00225C5.29755 3.09337 3.93016 4.48549 2.74754 5.99048C2.23015 6.66773 1.74972 7.49547 1.56493 8.36084C1.45406 8.73709 1.45406 9.41434 1.12145 9.60246C0.899716 9.71534 0.714933 9.64009 0.493193 9.48959C0.197541 9.26384 -0.0611553 8.77472 0.0127578 8.32322C0.456237 5.23798 2.89537 2.94287 5.07581 1.024C5.81494 0.346756 6.99755 -0.480989 8.03233 0.346756C9.03016 1.13688 8.62364 3.09337 8.32799 4.33499C7.92146 6.10335 7.36712 7.8341 7.03451 9.60246C6.99755 9.75296 7.10842 9.82821 7.25625 9.75296C10.3976 7.2321 13.0954 4.18449 15.941 1.28738C16.4215 0.798254 17.2345 0.986377 17.4932 1.626C17.6041 1.96462 17.715 2.34087 17.6041 2.60425C17.1606 4.48549 16.4584 6.29148 16.0519 8.17272C16.015 8.36084 16.1628 8.43609 16.3106 8.39847C19.2671 6.66773 21.5584 3.80824 24.4041 1.88937C25.1432 1.325 26.2519 1.927 26.2519 2.86762C26.2519 3.54487 25.9932 4.33499 25.8084 4.89936C25.7715 5.08748 25.8824 5.23798 26.0302 5.16273C27.7671 4.44786 29.5041 3.88349 31.278 3.31912C32.7193 2.83 33.9759 2.86762 34.4193 4.33499C34.4932 4.52311 34.715 4.67361 34.8998 4.63599C36.2672 4.22211 37.5606 3.54487 38.8541 2.90524C39.2237 2.75474 39.6302 3.09337 39.778 3.39437C39.9628 3.73299 40.1846 4.29736 39.7411 4.48549L37.3759 5.65186C35.9715 6.40435 33.9389 6.9311 33.3845 5.23798C33.2367 4.89936 32.9411 4.74886 32.6085 4.82411C30.2802 5.35086 28.0998 6.4796 25.7715 7.19447C24.0715 7.75885 23.5541 6.10335 24.0715 4.78649C24.1454 4.63599 23.9976 4.52311 23.8498 4.63599C22.7411 5.80236 21.4106 6.85585 20.1171 7.90935C19.5258 8.43609 18.8237 8.92522 18.1954 9.37671C17.5302 9.79059 16.828 10.3926 16.0519 10.355C13.465 10.2045 14.9063 6.21623 15.3497 4.82411C15.4606 4.63599 15.2019 4.48549 15.091 4.63599L11.6171 8.28559C10.3976 9.48959 9.17799 10.7688 7.69972 11.6342C7.2932 11.8223 6.92364 12.0857 6.4432 11.9728Z" fill="#42463B" style="fill:#42463B;fill:color(display-p3 0.2588 0.2745 0.2314);fill-opacity:1;"/>
</svg>
